<?xml version="1.0" standalone="no"?>
<!DOCTYPE svg PUBLIC "-//W3C//DTD SVG 20010904//EN"
 "http://www.w3.org/TR/2001/REC-SVG-20010904/DTD/svg10.dtd">
<svg version="1.0" xmlns="http://www.w3.org/2000/svg"
 width="512.000000pt" height="512.000000pt" viewBox="0 0 512.000000 512.000000"
 preserveAspectRatio="xMidYMid meet">

<g transform="translate(0.000000,512.000000) scale(0.100000,-0.100000)"
fill="#fcfbf9" stroke="none">
<path d="M963 4775 c-102 -31 -185 -104 -232 -204 l-26 -56 0 -1955 0 -1955
27 -57 c37 -79 98 -142 177 -181 l66 -32 1634 -3 1634 -2 44 21 c166 81 178
303 20 407 l-41 27 -1487 5 -1487 5 -43 30 c-23 17 -51 48 -62 69 -42 81 -13
192 63 239 l35 22 1420 5 1420 5 57 23 c81 33 160 108 200 190 l33 67 0 1535
0 1535 -32 66 c-39 79 -102 140 -181 177 l-57 27 -697 3 -698 2 -2 -854 -3
-854 -24 -26 c-39 -41 -96 -36 -152 12 -24 22 -120 102 -213 180 l-169 141
-62 -52 c-34 -29 -131 -109 -214 -179 -129 -109 -157 -128 -186 -128 -47 0
-64 8 -80 41 -13 24 -15 151 -15 874 l0 845 -312 -1 c-229 0 -324 -4 -355 -14z"/>
</g>
</svg>
